# ProBuilder 4.5.2
# https://unity3d.com/unity/features/worldbuilding/probuilder
# 8/12/2021 9:11:24 PM

mtllib ./Key.mtl
o Key

g Cube
v 4.187295 1.01045 -0.06649509
v 4.100544 0.9236992 -0.06649558
v 4.283395 0.7408479 -0.06649455
v 4.370146 0.8275988 -0.06649406
v 4.100543 0.9236992 0.06649406
v 4.283394 0.7408479 0.06649509
v 4.187295 1.01045 0.06649455
v 4.370145 0.8275988 0.06649558
v 3.928705 1.01045 0.06649484
v 4.015456 0.9236991 0.06649484
v 3.832605 0.7408479 0.06649484
v 3.745854 0.8275988 0.06649484
v 4.015456 0.9236991 -0.06649484
v 3.832605 0.7408479 -0.06649484
v 3.928705 1.01045 -0.06649484
v 3.745854 0.8275987 -0.06649484
v 3.886304 -0.05577535 0.06649484
v 3.886304 0.06937457 0.06649484
v 4.144895 0.06937455 0.06649484
v 4.144895 -0.05577538 0.06649484
v 3.886305 0.06937457 -0.06649484
v 4.144895 0.06937455 -0.06649484
v 3.886305 -0.05577533 -0.06649484
v 4.144895 -0.05577536 -0.06649484
v 4.247462 0.8275988 -0.06649522
v 4.247462 0.5690085 -0.06649522
v 4.370146 0.5690086 -0.06649451
v 4.247461 0.8275988 0.06649449
v 4.247461 0.5690085 0.06649449
v 4.370145 0.5690085 0.0664952
v 4.283395 0.6557595 -0.0664946
v 4.100544 0.4729085 -0.06649555
v 4.187295 0.3861576 -0.06649508
v 4.283394 0.6557596 0.06649508
v 4.100543 0.4729085 0.06649413
v 4.187294 0.3861576 0.0664946
v 3.745854 0.5690085 0.06649484
v 3.832605 0.6557595 0.06649484
v 4.015456 0.4729085 0.06649484
v 3.928705 0.3861575 0.06649484
v 3.832605 0.6557595 -0.06649484
v 4.015456 0.4729086 -0.06649484
v 3.745854 0.5690085 -0.06649484
v 3.928705 0.3861576 -0.06649484
v 3.928705 0.8877655 0.06649484
v 4.187295 0.8877655 0.06649484
v 3.928705 0.8877655 -0.06649484
v 4.187295 0.8877655 -0.06649484
v 3.868538 0.8275988 0.06649484
v 3.868538 0.5690085 0.06649483
v 3.868538 0.8275988 -0.06649484
v 3.868538 0.5690085 -0.06649484
v 3.928705 0.508842 0.06649484
v 4.187295 0.5088421 0.06649485
v 3.928705 0.5088421 -0.06649484
v 4.187295 0.5088421 -0.06649483
v 3.989047 -0.5000004 0.06649484
v 3.989047 0.4999999 0.06649484
v 4.144952 0.4999999 0.06649484
v 4.144952 -0.5000003 0.06649484
v 3.989047 0.4999999 -0.06649484
v 4.144952 0.4999999 -0.06649483
v 3.989047 -0.5000004 -0.06649484
v 4.144952 -0.5000003 -0.06649484
v 3.830268 -0.4187922 0.06649484
v 3.830268 -0.3076085 0.06649484
v 4.144931 -0.3076085 0.06649484
v 4.144931 -0.4187923 0.06649484
v 3.830268 -0.3076085 -0.06649484
v 4.144931 -0.3076085 -0.06649484
v 3.830268 -0.4187922 -0.06649484
v 4.144931 -0.4187922 -0.06649484

vt 0 0
vt 0 1
vt 1 1
vt 1 0

vn 7.541084E-07 2.948964E-09 -0.1329896
vn -0.0867511 -0.08675083 -4.938398E-07
vn -7.541084E-07 -2.948964E-09 0.1329896
vn 0.0867511 0.08675083 4.938398E-07
vn 0.1828506 -0.1828512 1.032787E-06
vn -0.1828506 0.1828512 -1.032787E-06
vn -0.1280161 0.2023865 -7.240241E-07
vn 0.1280161 -0.2023865 7.097008E-07
vn 0.202386 -0.1280164 7.053094E-07
vn -0.202386 0.1280164 -7.053094E-07

usemtl Lit
f 4/4/1 3/3/1 2/2/1 1/1/1
f 3/4/2 6/3/2 5/2/2 2/1/2
f 6/4/3 8/3/3 7/2/3 5/1/3
f 8/4/4 4/3/4 1/2/4 7/1/4
f 8/4/5 6/3/5 3/2/5 4/1/5
f 1/4/6 2/3/6 5/2/6 7/1/6
f 12/4/3 11/3/3 10/2/3 9/1/3
f 11/4/5 14/3/5 13/2/5 10/1/5
f 14/4/1 16/3/1 15/2/1 13/1/1
f 16/4/6 12/3/6 9/2/6 15/1/6
f 16/4/2 14/3/2 11/2/2 12/1/2
f 9/4/4 10/3/4 13/2/4 15/1/4
f 20/4/3 19/3/3 18/2/3 17/1/3
f 19/4/7 22/3/7 21/2/7 18/1/7
f 22/4/1 24/3/1 23/2/1 21/1/1
f 24/4/8 20/3/8 17/2/8 23/1/8
f 24/4/9 22/3/9 19/2/9 20/1/9
f 17/4/10 18/3/10 21/2/10 23/1/10
f 27/4/1 26/3/1 25/2/1 4/1/1
f 26/4/10 29/3/10 28/2/10 25/1/10
f 29/4/3 30/3/3 8/2/3 28/1/3
f 30/4/9 27/3/9 4/2/9 8/1/9
f 30/4/8 29/3/8 26/2/8 27/1/8
f 4/4/7 25/3/7 28/2/7 8/1/7
f 33/4/1 32/3/1 31/2/1 27/1/1
f 32/4/6 35/3/6 34/2/6 31/1/6
f 35/4/3 36/3/3 30/2/3 34/1/3
f 36/4/5 33/3/5 27/2/5 30/1/5
f 36/4/2 35/3/2 32/2/2 33/1/2
f 27/4/4 31/3/4 34/2/4 30/1/4
f 40/4/3 39/3/3 38/2/3 37/1/3
f 39/4/4 42/3/4 41/2/4 38/1/4
f 42/4/1 44/3/1 43/2/1 41/1/1
f 44/4/2 40/3/2 37/2/2 43/1/2
f 44/4/5 42/3/5 39/2/5 40/1/5
f 37/4/6 38/3/6 41/2/6 43/1/6
f 46/4/3 7/3/3 9/2/3 45/1/3
f 7/4/7 1/3/7 15/2/7 9/1/7
f 1/4/1 48/3/1 47/2/1 15/1/1
f 48/4/8 46/3/8 45/2/8 47/1/8
f 48/4/9 1/3/9 7/2/9 46/1/9
f 45/4/10 9/3/10 15/2/10 47/1/10
f 37/4/3 50/3/3 49/2/3 12/1/3
f 50/4/9 52/3/9 51/2/9 49/1/9
f 52/4/1 43/3/1 16/2/1 51/1/1
f 43/4/10 37/3/10 12/2/10 16/1/10
f 43/4/8 52/3/8 50/2/8 37/1/8
f 12/4/7 49/3/7 51/2/7 16/1/7
f 36/4/3 54/3/3 53/2/3 40/1/3
f 54/4/7 56/3/7 55/2/7 53/1/7
f 56/4/1 33/3/1 44/2/1 55/1/1
f 33/4/8 36/3/8 40/2/8 44/1/8
f 33/4/9 56/3/9 54/2/9 36/1/9
f 40/4/10 53/3/10 55/2/10 44/1/10
f 60/4/3 59/3/3 58/2/3 57/1/3
f 59/4/7 62/3/7 61/2/7 58/1/7
f 62/4/1 64/3/1 63/2/1 61/1/1
f 64/4/8 60/3/8 57/2/8 63/1/8
f 64/4/9 62/3/9 59/2/9 60/1/9
f 57/4/10 58/3/10 61/2/10 63/1/10
f 68/4/3 67/3/3 66/2/3 65/1/3
f 67/4/7 70/3/7 69/2/7 66/1/7
f 70/4/1 72/3/1 71/2/1 69/1/1
f 72/4/8 68/3/8 65/2/8 71/1/8
f 72/4/9 70/3/9 67/2/9 68/1/9
f 65/4/10 66/3/10 69/2/10 71/1/10

